# xmcd CD database file
#
# Track frame offsets:
#	182
#	22387
#	35402
#	53790
#	68380
#	84340
#	97700
#	121557
#	135097
#	156295
#	186480
#	198652
#	215190
#
# Disc length: 3132 seconds
#
# Revision: 1
# Processed by: cddbd v1.5.2PL0 Copyright (c) Steve Scherf et al.
# Submitted via: CDex 1.51
#
DISCID=ab0c3a0d
DTITLE=Steve Johnson - Blues Distorsion
DYEAR=2000
DGENRE=Blues
TTITLE0=Early in the Morning
TTITLE1=Stop Messin' 'Round
TTITLE2=On Your Bond
TTITLE3=Done Left Town
TTITLE4=She Wanna Boogie
TTITLE5=Bus Blues
TTITLE6=Dig Your Grave
TTITLE7=Buddy's Getaway
TTITLE8=B.L.U.E.S.
TTITLE9=Worried Blues
TTITLE10=Beer
TTITLE11=Big Legs
TTITLE12=Sleepwalk
EXTD=YEAR: 2000
EXTT0=
EXTT1=
EXTT2=
EXTT3=
EXTT4=
EXTT5=
EXTT6=
EXTT7=
EXTT8=
EXTT9=
EXTT10=
EXTT11=
EXTT12=
PLAYORDER=
